<?xml version="1.0" encoding="UTF-8"?>
<svg width="44px" height="35px" viewBox="0 0 44 35" version="1.1" xmlns="http://www.w3.org/2000/svg" xmlns:xlink="http://www.w3.org/1999/xlink">
    <!-- Generator: Sketch 41.2 (35397) - http://www.bohemiancoding.com/sketch -->
    <title>main-logo</title>
    <desc>Created with Sketch.</desc>
    <defs>
        <polygon id="path-1" points="43.6853585 34.0375698 43.6853585 0.656679245 0.000166037736 0.656679245 0.000166037736 34.0375698"></polygon>
    </defs>
    <g id="Page-1" stroke="none" stroke-width="1" fill="none" fill-rule="evenodd">
        <g id="2017_控制中心" transform="translate(-20.000000, -16.000000)">
            <g id="header">
                <g id="main-logo" transform="translate(20.000000, 16.000000)">
                    <g id="Group-3" transform="translate(0.000000, 0.173509)">
                        <mask id="mask-2" fill="white">
                            <use xlink:href="#path-1"></use>
                        </mask>
                        <g id="Clip-2"></g>
                        <path d="M28.3594113,25.119683 C25.6305811,25.119683 23.2296755,23.7025509 21.8424302,21.5706264 C20.4551849,23.7025509 18.0567698,25.119683 15.3287698,25.119683 C11.0416755,25.119683 7.55488302,21.6337208 7.55488302,17.3482868 C7.55488302,13.0628528 11.0416755,9.57606038 15.3287698,9.57606038 C18.0567698,9.57606038 20.4551849,10.9915321 21.8424302,13.1259472 C23.2296755,10.9915321 25.6305811,9.57606038 28.3594113,9.57606038 C32.6448453,9.57606038 36.1299774,13.0628528 36.1299774,17.3482868 C36.1299774,21.6337208 32.6448453,25.119683 28.3594113,25.119683 M43.3891472,9.15515472 C43.384166,9.11281509 43.3783547,9.06715472 43.3717132,9.02149434 C42.9964679,4.99756981 39.8218264,1.85198491 35.8336,1.53070189 C31.2102792,0.9504 26.5022792,0.656513208 21.8424302,0.656513208 C17.1684679,0.656513208 12.4596377,0.9504 7.90439245,1.52406038 C3.61314717,1.8594566 0.253373585,5.49817358 0.253373585,9.80519245 L0.253373585,9.86164528 C0.084845283,12.3721358 0.000166037736,14.8917585 0.000166037736,17.3482868 C0.000166037736,20.0854189 0.102279245,22.8640604 0.302354717,25.6061736 C0.305675472,25.6551547 0.31314717,25.7016453 0.322279245,25.7473057 C0.729071698,29.7114566 3.88046792,32.8213434 7.81224151,33.1608906 C12.4372226,33.7428528 17.1576755,34.0375698 21.8424302,34.0375698 C26.4740528,34.0375698 31.156317,33.747834 35.7613736,33.1733434 C40.0667321,32.8462491 43.432317,29.215834 43.432317,24.8913811 L43.432317,24.8490415 C43.6008453,22.3260981 43.6855245,19.8031547 43.6855245,17.3482868 C43.6855245,14.6219472 43.5859019,11.8640604 43.3891472,9.15515472" id="Fill-1" fill="#09A8BE" mask="url(#mask-2)"></path>
                    </g>
                    <path d="M28.3594113,12.2614717 C25.4587321,12.2614717 23.0993358,14.6208679 23.0993358,17.5215472 C23.0993358,20.420566 25.4587321,22.7816226 28.3594113,22.7816226 C31.2600906,22.7816226 33.6178264,20.420566 33.6178264,17.5215472 C33.6178264,14.6208679 31.2600906,12.2614717 28.3594113,12.2614717" id="Fill-4" fill="#09A8BE"></path>
                    <path d="M15.3285208,12.2614717 C12.4270113,12.2614717 10.0684453,14.6208679 10.0684453,17.5215472 C10.0684453,20.420566 12.4270113,22.7816226 15.3285208,22.7816226 C18.2283698,22.7816226 20.5861057,20.420566 20.5861057,17.5215472 C20.5861057,14.6208679 18.2283698,12.2614717 15.3285208,12.2614717" id="Fill-6" fill="#09A8BE"></path>
                </g>
            </g>
        </g>
    </g>
</svg>